# xmcd
#
# Track frame offsets:
#	150
#	11275
#	29032
#	39637
#	59975
#	82632
#	101989
#	115304
#	156024
#	170805
#	193930
#	209208
#	236686
#	257423
#	272584
#	296708
#
# Disc length: 4145 seconds
#
# Revision: 44
# Processed by: cddbd v1.5.2PL0 Copyright (c) Steve Scherf et al.
# Submitted via: audiograbber 1.83.01
#
DISCID=f2102f10
DTITLE=Legião Urbana - Mais do Mesmo
DYEAR=1998
DGENRE=Rock Nacional
TTITLE0=Será
TTITLE1=Ainda é Cedo
TTITLE2=Geração Coca-Cola
TTITLE3=Eduardo e Mônica
TTITLE4=Tempo Perdido
TTITLE5=Índios
TTITLE6=Que País é Este
TTITLE7=Faroeste Caboclo
TTITLE8=Há Tempos
TTITLE9=Pais e Filhos
TTITLE10=Meninos e Meninas
TTITLE11=Vento No Litoral
TTITLE12=Perfeição
TTITLE13=Giz
TTITLE14=Dezesseis
TTITLE15=Antes das Seis
EXTD=
EXTT0=
EXTT1=
EXTT2=
EXTT3=
EXTT4=
EXTT5=
EXTT6=
EXTT7=
EXTT8=
EXTT9=
EXTT10=
EXTT11=
EXTT12=
EXTT13=
EXTT14=
EXTT15=
PLAYORDER=
